<svg width="32" height="32" viewBox="0 0 32 32" fill="none" xmlns="http://www.w3.org/2000/svg">
<path d="M29.5975 8.54625C29.5275 8.45413 29.4371 8.37945 29.3335 8.32806C29.2298 8.27666 29.1157 8.24995 29 8.25H6.95875L5.7225 3.79875C5.67854 3.64092 5.5841 3.50183 5.45363 3.40274C5.32316 3.30365 5.16384 3.25 5 3.25H2C1.80109 3.25 1.61032 3.32902 1.46967 3.46967C1.32902 3.61032 1.25 3.80109 1.25 4C1.25 4.19891 1.32902 4.38968 1.46967 4.53033C1.61032 4.67098 1.80109 4.75 2 4.75H4.43L8.875 20.7362C9.03717 21.3137 9.38306 21.8227 9.86031 22.186C10.3376 22.5494 10.9202 22.7473 11.52 22.75H23.875C24.4757 22.7484 25.0594 22.5509 25.5377 22.1875C26.016 21.8241 26.3626 21.3146 26.525 20.7362L29.7288 9.20125C29.759 9.08935 29.7628 8.97198 29.7401 8.85833C29.7173 8.74468 29.6685 8.63786 29.5975 8.54625ZM25.0725 20.335C24.9996 20.597 24.8433 20.8281 24.6271 20.9933C24.411 21.1584 24.147 21.2485 23.875 21.25H11.52C11.247 21.2499 10.9815 21.1604 10.7641 20.9951C10.5467 20.8299 10.3894 20.5981 10.3162 20.335L7.375 9.75H28.0138L25.0725 20.335ZM12.75 27C12.75 27.3461 12.6474 27.6845 12.4551 27.9722C12.2628 28.26 11.9895 28.4843 11.6697 28.6168C11.3499 28.7492 10.9981 28.7839 10.6586 28.7164C10.3191 28.6488 10.0073 28.4822 9.76256 28.2374C9.51782 27.9927 9.35115 27.6809 9.28363 27.3414C9.2161 27.0019 9.25076 26.6501 9.38321 26.3303C9.51566 26.0105 9.73997 25.7372 10.0278 25.5449C10.3155 25.3526 10.6539 25.25 11 25.25C11.4641 25.25 11.9092 25.4344 12.2374 25.7626C12.5656 26.0908 12.75 26.5359 12.75 27ZM25.75 27C25.75 27.3461 25.6474 27.6845 25.4551 27.9722C25.2628 28.26 24.9895 28.4843 24.6697 28.6168C24.3499 28.7492 23.9981 28.7839 23.6586 28.7164C23.3191 28.6488 23.0073 28.4822 22.7626 28.2374C22.5178 27.9927 22.3512 27.6809 22.2836 27.3414C22.2161 27.0019 22.2508 26.6501 22.3832 26.3303C22.5157 26.0105 22.74 25.7372 23.0278 25.5449C23.3155 25.3526 23.6539 25.25 24 25.25C24.4641 25.25 24.9092 25.4344 25.2374 25.7626C25.5656 26.0908 25.75 26.5359 25.75 27Z" fill="white"/>
</svg>
