<svg width="29" height="26" viewBox="0 0 29 26" fill="none" xmlns="http://www.w3.org/2000/svg">
<path d="M28.5975 5.54625C28.5275 5.45413 28.4371 5.37945 28.3335 5.32806C28.2298 5.27666 28.1157 5.24995 28 5.25H5.95875L4.7225 0.79875C4.67854 0.640923 4.5841 0.501833 4.45363 0.402739C4.32316 0.303645 4.16384 0.249999 4 0.25H1C0.801088 0.25 0.610322 0.329018 0.46967 0.46967C0.329018 0.610322 0.25 0.801088 0.25 1C0.25 1.19891 0.329018 1.38968 0.46967 1.53033C0.610322 1.67098 0.801088 1.75 1 1.75H3.43L7.875 17.7362C8.03717 18.3137 8.38306 18.8227 8.86031 19.186C9.33756 19.5494 9.92018 19.7473 10.52 19.75H22.875C23.4757 19.7484 24.0594 19.5509 24.5377 19.1875C25.016 18.8241 25.3626 18.3146 25.525 17.7362L28.7288 6.20125C28.759 6.08935 28.7628 5.97198 28.7401 5.85833C28.7173 5.74468 28.6685 5.63786 28.5975 5.54625ZM24.0725 17.335C23.9996 17.597 23.8433 17.8281 23.6271 17.9933C23.411 18.1584 23.147 18.2485 22.875 18.25H10.52C10.247 18.2499 9.98146 18.1604 9.76409 17.9951C9.54672 17.8299 9.38943 17.5981 9.31625 17.335L6.375 6.75H27.0138L24.0725 17.335ZM11.75 24C11.75 24.3461 11.6474 24.6845 11.4551 24.9722C11.2628 25.26 10.9895 25.4843 10.6697 25.6168C10.3499 25.7492 9.99806 25.7839 9.65859 25.7164C9.31913 25.6488 9.0073 25.4822 8.76256 25.2374C8.51782 24.9927 8.35115 24.6809 8.28363 24.3414C8.2161 24.0019 8.25076 23.6501 8.38321 23.3303C8.51566 23.0105 8.73997 22.7372 9.02775 22.5449C9.31554 22.3526 9.65388 22.25 10 22.25C10.4641 22.25 10.9092 22.4344 11.2374 22.7626C11.5656 23.0908 11.75 23.5359 11.75 24ZM24.75 24C24.75 24.3461 24.6474 24.6845 24.4551 24.9722C24.2628 25.26 23.9895 25.4843 23.6697 25.6168C23.3499 25.7492 22.9981 25.7839 22.6586 25.7164C22.3191 25.6488 22.0073 25.4822 21.7626 25.2374C21.5178 24.9927 21.3512 24.6809 21.2836 24.3414C21.2161 24.0019 21.2508 23.6501 21.3832 23.3303C21.5157 23.0105 21.74 22.7372 22.0278 22.5449C22.3155 22.3526 22.6539 22.25 23 22.25C23.4641 22.25 23.9092 22.4344 24.2374 22.7626C24.5656 23.0908 24.75 23.5359 24.75 24Z" fill="white"/>
</svg>
