<?xml version="1.0" encoding="utf-8"?>
<!-- Generator: Adobe Illustrator 25.0.0, SVG Export Plug-In . SVG Version: 6.00 Build 0)  -->
<svg version="1.1" id="Layer_1" xmlns="http://www.w3.org/2000/svg" xmlns:xlink="http://www.w3.org/1999/xlink" x="0px" y="0px"
	 viewBox="0 0 2500 2500" style="enable-background:new 0 0 2500 2500;" xml:space="preserve">
<style type="text/css">
	.st0{fill:#141414;}
</style>
<path class="st0" d="M0,1250c0-345.1,122.1-639.6,366.2-883.8C610.4,122.1,904.9,0,1250,0c345,0,639.6,122.1,883.8,366.2
	C2377.9,610.4,2500,904.9,2500,1250s-122.1,639.6-366.2,883.8S1595.1,2500,1250,2500s-639.7-122.1-883.8-366.2
	C122.1,1889.6,0,1595,0,1250z M136.7,1250c0,306,109,568,327.1,786.1C682,2254.2,944,2363.3,1250,2363.3s568-109,786.1-327.1
	s327.1-480.1,327.1-786.1s-109-568-327.1-786.1C1818,245.8,1556,136.7,1250,136.7s-568,109-786.1,327.1
	C245.8,682,136.7,944,136.7,1250z M488.3,1518.6c-6.5-6.5-6.5-13,0-19.5c13-13,29.3-17.9,48.8-14.6s30.9,6.5,34.2,9.8
	c22.8,9.8,48,31.7,75.7,65.9c27.7,34.2,49.6,57.8,65.9,70.8c78.1,65.1,157.9,70,239.3,14.6c6.5-22.8,17.1-42.3,31.7-58.6
	c14.6-16.3,28.5-27.7,41.5-34.2s35.8-16.3,68.4-29.3c-107.4-9.8-194.5-28.5-261.2-56.2s-119.6-62.7-158.7-105
	c-52.1-58.6-83.8-135.1-95.2-229.5s-4.1-180.7,22-258.8c19.5-48.8,47.2-92.8,83-131.8c-26-81.4-21.2-174.2,14.6-278.3
	c104.2,6.5,198.6,42.3,283.2,107.4c162.8-42.3,332-43.9,507.8-4.9c22.8-16.3,57.8-36.6,105-61c47.2-24.4,106.6-38.2,178.2-41.5
	c13,35.8,22,78.1,26.9,127c4.9,48.8,2.4,94.4-7.3,136.7c74.9,78.1,113.9,182.3,117.2,312.5c0,104.2-17.9,190.4-53.7,258.8
	c-35.8,68.4-99.3,125.3-190.4,170.9c-61.8,29.3-143.2,47.2-244.1,53.7c45.6,22.8,78.9,46.4,100.1,70.8s35,62.7,41.5,114.7v153.8
	l4.9,148.9c9.8,16.3,21.2,30.1,34.2,41.5c13,11.4,24.4,19.5,34.2,24.4c9.8,4.9,13,12.2,9.8,22c-3.3,9.8-16.3,14.6-39.1,14.6
	c-55.3,0-99.3-19.5-131.8-58.6c-9.8-16.3-14.6-35.8-14.6-58.6v-234.4c0-26-6.5-44.8-19.5-56.2c-13-11.4-26-18.7-39.1-22V1992
	c0,55.3,6.5,91.1,19.5,107.4s21.2,32.6,24.4,48.8c3.3,3.3,0.8,5.7-7.3,7.3c-8.1,1.6-22-0.8-41.5-7.3c-42.3-9.8-71.6-31.7-87.9-65.9
	s-24.4-70.8-24.4-109.9v-302.7H1221v302.7c0,39.1-8.1,76.5-24.4,112.3c-22.8,45.6-65.1,70-127,73.2c-9.8-3.3-14.6-6.5-14.6-9.8
	c3.3-3.3,13-19.5,29.3-48.8c3.3-6.5,7.3-19.5,12.2-39.1c4.9-19.5,7.3-42.3,7.3-68.4v-307.6c-13,3.3-25.2,10.6-36.6,22
	s-17.1,30.1-17.1,56.2v234.4c0,22.8-4.9,42.3-14.6,58.6c-29.3,39.1-73.2,58.6-131.8,58.6c-22.8,0-35.8-4.9-39.1-14.6
	c-3.3-6.5-2.4-12.2,2.4-17.1s12.2-10.6,22-17.1s16.3-11.4,19.5-14.6c13-9.8,22.8-22.8,29.3-39.1c9.8-13,12.2-47.2,7.3-102.5
	s-5.7-91.1-2.4-107.4c-84.6,29.3-170.9,14.6-258.8-43.9c-26-26-52.1-63.5-78.1-112.3C585.9,1609.7,546.9,1567.4,488.3,1518.6
	L488.3,1518.6z"/>
</svg>
