<svg xmlns:xlink="http://www.w3.org/1999/xlink" xmlns="http://www.w3.org/2000/svg" width="198" height="74" viewBox="0 0 198 74" fill="none">
<mask id="mask0_1107_2059" style="mask-type:luminance" maskUnits="userSpaceOnUse" x="0" y="0" width="198" height="74">
<path d="M197.333 0H0V74H197.333V0Z" fill="white"/>
</mask>
<g mask="url(#mask0_1107_2059)">
<path d="M101.879 24.5103L111.268 23.8975C111.482 25.4474 111.875 26.6008 112.517 27.4299C113.552 28.7275 114.98 29.3764 116.872 29.3764C118.264 29.3764 119.371 29.052 120.121 28.3671C120.835 27.8265 121.263 26.9614 121.263 26.0602C121.263 25.1951 120.87 24.3662 120.192 23.8254C119.478 23.1767 117.8 22.5278 115.159 21.9512C110.839 20.9778 107.734 19.6802 105.913 18.0222C104.093 16.4723 103.057 14.2015 103.129 11.7865C103.129 10.1284 103.629 8.47035 104.557 7.10065C105.628 5.55073 107.091 4.3252 108.84 3.64035C110.732 2.81132 113.374 2.37878 116.694 2.37878C120.763 2.37878 123.869 3.13572 126.011 4.68564C128.152 6.19953 129.438 8.65057 129.83 12.0027L120.549 12.5434C120.299 11.1016 119.799 10.0563 118.978 9.37148C118.157 8.68662 117.086 8.36222 115.694 8.36222C114.552 8.36222 113.695 8.61453 113.124 9.08311C112.589 9.51565 112.232 10.1645 112.267 10.8854C112.267 11.426 112.553 11.9307 112.981 12.2551C113.445 12.6876 114.552 13.0841 116.301 13.4445C120.62 14.3817 123.69 15.3189 125.582 16.292C127.474 17.2652 128.831 18.4547 129.652 19.8604C130.508 21.3023 130.937 22.9603 130.901 24.6545C130.901 26.6729 130.33 28.6915 129.188 30.3856C128.01 32.1518 126.368 33.5216 124.44 34.3505C122.405 35.2517 119.835 35.7202 116.765 35.7202C111.339 35.7202 107.591 34.675 105.485 32.5483C103.379 30.4217 102.129 27.7544 101.879 24.5103ZM2.24892 35.1796V2.95549H18.7053C21.7395 2.95549 24.0956 3.20782 25.7019 3.74848C27.2725 4.2531 28.6647 5.2984 29.5929 6.70416C30.628 8.25408 31.1279 10.0563 31.0922 11.9306C31.1993 15.1025 29.5929 18.1303 26.8442 19.7164C25.7733 20.3291 24.5953 20.7616 23.3815 20.9778C24.274 21.2302 25.1664 21.6627 25.9518 22.1674C26.5586 22.672 27.0583 23.2488 27.5225 23.8615C28.0579 24.4743 28.5219 25.1591 28.9146 25.88L33.698 35.2156H22.4892L17.206 25.3032C16.5277 24.0417 15.9566 23.2126 15.4212 22.8162C14.7071 22.3116 13.8505 22.0593 12.9937 22.0593H12.137V35.1435H2.24892V35.1796ZM12.137 16.0037H16.3135C17.206 15.9316 18.0627 15.7874 18.9195 15.5712C19.562 15.4631 20.1331 15.1025 20.5259 14.5619C21.4896 13.2643 21.3468 11.426 20.1688 10.3086C19.5263 9.76796 18.2768 9.47961 16.492 9.47961H12.137V16.0037ZM0 62.7899L9.38832 62.1771C9.60252 63.7271 9.99518 64.8804 10.6377 65.7095C11.6372 67.0071 13.1008 67.692 14.9928 67.692C16.3849 67.692 17.4916 67.3676 18.2411 66.6827C18.9552 66.1059 19.3835 65.277 19.3835 64.3758C19.3835 63.5107 18.9909 62.6818 18.3125 62.1411C17.5987 61.4923 15.9209 60.8435 13.2436 60.2668C8.92427 59.2936 5.81862 57.996 3.99808 56.3378C2.17752 54.7879 1.14231 52.5171 1.2137 50.1021C1.2137 48.444 1.71346 46.786 2.64158 45.4163C3.71249 43.8663 5.17607 42.6408 6.92522 41.956C8.81717 41.1269 11.4588 40.6943 14.7785 40.6943C18.8481 40.6943 21.9536 41.4513 24.0956 43.0013C26.2374 44.5512 27.4868 46.9662 27.8794 50.3184L18.5982 50.859C18.3482 49.4172 17.8485 48.3719 17.0275 47.6871C16.2421 47.0022 15.1356 46.6779 13.7434 46.7139C12.6011 46.7139 11.7443 46.9662 11.1732 47.4709C10.602 47.9034 10.2807 48.5521 10.3165 49.2731C10.3165 49.8138 10.602 50.3184 11.0304 50.6428C11.4944 51.0754 12.6011 51.4718 14.3502 51.8322C18.6696 52.7694 21.7395 53.7066 23.6314 54.6798C25.5233 55.6529 26.8798 56.8424 27.701 58.2483C28.5576 59.69 28.9859 61.348 28.9859 63.0062C28.9859 65.0247 28.3791 67.0071 27.2725 68.7012C26.0946 70.4675 24.4525 71.8372 22.5249 72.6661C20.4902 73.5673 17.9199 74.0358 14.8499 74.0358C9.42402 74.0358 5.67583 72.9906 3.5697 70.8639C1.46358 68.7012 0.285576 66.034 0 62.7899Z" fill="#1F212D"/>
<path d="M47.4763 60.2637L56.115 62.8949C55.6508 65.0937 54.6871 67.1843 53.3662 69.0225C52.1525 70.6446 50.5462 71.9062 48.7257 72.7351C46.8693 73.5642 44.5134 73.9968 41.6575 73.9968C38.1951 73.9968 35.3392 73.4921 33.1618 72.4828C30.9484 71.4737 29.0565 69.6714 27.4501 67.1122C25.8439 64.5531 25.0585 61.273 25.0585 57.2719C25.0585 51.9374 26.4507 47.8282 29.2707 44.9806C32.0908 42.1331 36.0531 40.6914 41.1935 40.6914C45.2274 40.6914 48.3686 41.5204 50.689 43.1424C52.9736 44.8004 54.6871 47.3235 55.8294 50.7119L47.1193 52.6582C46.905 51.9012 46.5838 51.1444 46.1554 50.4955C45.62 49.7386 44.9417 49.1619 44.1207 48.7294C43.2996 48.2969 42.3716 48.1167 41.4434 48.1167C39.1945 48.1167 37.481 49.0177 36.303 50.856C35.4106 52.1897 34.9466 54.3163 34.9466 57.1999C34.9466 60.7683 35.482 63.2193 36.553 64.5531C37.6238 65.8867 39.1231 66.5355 41.0864 66.5355C42.9784 66.5355 44.4063 65.9948 45.3702 64.9495C46.3339 63.8321 47.0479 62.2821 47.4763 60.2637ZM67.645 41.232H77.4975V52.514H88.278V41.232H98.2018V73.4561H88.278V60.4079H77.4975V73.4561H67.645V41.232Z" fill="#1F212D"/>
<path d="M96.8453 57.3449C96.8453 52.0823 98.3088 47.9731 101.2 45.0536C104.092 42.134 108.161 40.6561 113.337 40.6561C118.656 40.6561 122.726 42.098 125.617 44.9815C128.509 47.865 129.936 51.9021 129.936 57.0925C129.936 60.8773 129.294 63.941 128.044 66.356C126.831 68.7351 124.939 70.6814 122.619 71.979C120.227 73.3128 117.264 73.9976 113.73 73.9976C110.125 73.9976 107.162 73.4209 104.806 72.2673C102.378 71.0418 100.379 69.1315 99.0585 66.7886C97.5949 64.2655 96.8453 61.1296 96.8453 57.3449ZM106.698 57.3809C106.698 60.625 107.305 62.9679 108.482 64.4097C109.661 65.8154 111.303 66.5362 113.373 66.5362C115.479 66.5362 117.121 65.8514 118.299 64.4457C119.477 63.04 120.048 60.5528 120.048 56.9483C120.048 53.9206 119.442 51.6858 118.228 50.3162C117.014 48.9103 115.372 48.2255 113.302 48.2255C111.481 48.1535 109.732 48.9464 108.518 50.3522C107.305 51.7579 106.698 54.1008 106.698 57.3809ZM140.039 57.3449C140.039 52.0823 141.502 47.9731 144.394 45.0536C147.285 42.134 151.355 40.6561 156.531 40.6561C161.85 40.6561 165.955 42.098 168.81 44.9815C171.666 47.865 173.13 51.9021 173.13 57.0925C173.13 60.8773 172.487 63.941 171.238 66.356C170.025 68.7351 168.133 70.6814 165.811 71.979C163.42 73.3128 160.457 73.9976 156.924 73.9976C153.318 73.9976 150.355 73.4209 147.999 72.2673C145.572 71.0418 143.573 69.1315 142.252 66.7886C140.788 64.2655 140.039 61.1296 140.039 57.3449ZM149.891 57.3809C149.891 60.625 150.498 62.9679 151.676 64.4097C152.854 65.8154 154.497 66.5362 156.567 66.5362C158.672 66.5362 160.315 65.8514 161.493 64.4457C162.671 63.04 163.242 60.5528 163.242 56.9483C163.242 53.9206 162.635 51.6858 161.421 50.3162C160.208 48.9103 158.565 48.2255 156.495 48.2255C154.675 48.1535 152.89 48.9464 151.712 50.3522C150.498 51.7579 149.891 54.1008 149.891 57.3809Z" fill="#1F212D"/>
<path d="M172.097 41.2343H181.949V65.5285H197.333V73.4584H172.06V41.2343H172.097Z" fill="#1F212D"/>
<mask id="mask1_1107_2059" style="mask-type:alpha" maskUnits="userSpaceOnUse" x="125" y="-1" width="51" height="49">
<path d="M161.76 38.2202C171.679 30.6723 174.738 17.8777 168.592 9.64238C162.445 1.40709 149.423 0.849768 139.503 8.39755C129.584 15.9453 126.525 28.74 132.671 36.9754C138.817 45.2106 151.84 45.7679 161.76 38.2202Z" stroke="#1F212D" stroke-width="8" stroke-miterlimit="10"/>
</mask>
<g mask="url(#mask1_1107_2059)">
<path d="M161.76 38.2202C171.679 30.6723 174.738 17.8777 168.592 9.64238C162.445 1.40709 149.423 0.849768 139.503 8.39755C129.584 15.9453 126.525 28.74 132.671 36.9754C138.817 45.2105 151.84 45.7679 161.76 38.2202Z" fill="#1F212D"/>
</g>
<path d="M140.6 22.0964L144.169 19.5733L148.56 25.8811C149.31 26.8904 149.881 27.9717 150.31 29.1612C150.56 30.0624 150.488 31.0356 150.132 31.9006C149.667 32.9819 148.917 33.8831 147.917 34.5319C146.739 35.3609 145.739 35.8295 144.883 35.9737C144.062 36.1179 143.206 35.9737 142.42 35.6133C141.564 35.1807 140.814 34.568 140.243 33.775L143.313 30.8913C143.563 31.2879 143.884 31.6483 144.241 31.9366C144.491 32.1168 144.776 32.2251 145.098 32.2251C145.347 32.2251 145.597 32.1168 145.776 31.9728C146.133 31.7564 146.382 31.3239 146.347 30.8913C146.24 30.2786 145.99 29.6658 145.597 29.1973L140.6 22.0964ZM151.308 26.0974L154.557 23.5022C154.914 23.9348 155.378 24.2591 155.877 24.4394C156.591 24.6556 157.341 24.5114 157.948 24.0429C158.377 23.7545 158.734 23.358 158.877 22.8533C159.091 22.2046 158.734 21.4836 158.092 21.2674C157.984 21.2313 157.877 21.1953 157.77 21.1953C157.341 21.1593 156.591 21.3395 155.486 21.8081C153.665 22.565 152.237 22.8533 151.166 22.7452C150.132 22.6371 149.167 22.0964 148.596 21.1953C148.167 20.5826 147.954 19.8617 147.917 19.1407C147.917 18.3118 148.132 17.4827 148.596 16.7978C149.274 15.8246 150.095 14.9956 151.095 14.3468C152.594 13.3015 153.914 12.7969 155.058 12.7969C156.2 12.7969 157.27 13.3375 158.27 14.4549L155.058 17.0142C154.415 16.1851 153.2 16.0049 152.379 16.6536L152.273 16.7618C151.916 16.978 151.665 17.3025 151.523 17.699C151.416 17.9873 151.487 18.3118 151.665 18.5641C151.809 18.7443 152.022 18.8884 152.273 18.8884C152.558 18.9245 153.058 18.7803 153.772 18.4559C155.557 17.699 156.913 17.2665 157.842 17.1223C158.627 16.978 159.448 17.0501 160.197 17.3746C160.876 17.6629 161.446 18.1675 161.84 18.7803C162.339 19.5011 162.624 20.3662 162.661 21.2674C162.696 22.2046 162.446 23.1057 161.947 23.8986C161.304 24.8719 160.483 25.7009 159.519 26.3498C157.556 27.7194 155.95 28.2961 154.664 28.0799C153.271 27.8636 152.13 27.1427 151.308 26.0974Z" fill="#1F212D"/>
</g>
</svg>