<?xml version="1.0" encoding="utf-8"?>
<!-- Generator: Adobe Illustrator 25.0.0, SVG Export Plug-In . SVG Version: 6.00 Build 0)  -->
<svg version="1.1" id="Layer_1" xmlns="http://www.w3.org/2000/svg" xmlns:xlink="http://www.w3.org/1999/xlink" x="0px" y="0px"
	 viewBox="0 0 198 74" style="enable-background:new 0 0 198 74;" xml:space="preserve">
<style type="text/css">
	.st0{fill:#FFFFFF;filter:url(#Adobe_OpacityMaskFilter);}
	.st1{mask:url(#mask0_1107_2059_1_);}
	.st2{fill:#FFFFFF;}
	.st3{fill:none;filter:url(#Adobe_OpacityMaskFilter_1_);stroke:#1F212D;stroke-width:8;stroke-miterlimit:10;}
	.st4{mask:url(#mask1_1107_2059_1_);}
</style>
<defs>
	<filter id="Adobe_OpacityMaskFilter" filterUnits="userSpaceOnUse" x="0" y="1.2" width="197.3" height="71.7">
		<feColorMatrix  type="matrix" values="1 0 0 0 0  0 1 0 0 0  0 0 1 0 0  0 0 0 1 0"/>
	</filter>
</defs>
<mask maskUnits="userSpaceOnUse" x="0" y="1.2" width="197.3" height="71.7" id="mask0_1107_2059_1_">
	<path class="st0" d="M197.3-1.2H0v74h197.3V-1.2z"/>
</mask>
<g class="st1">
	<path class="st2" d="M101.9,23.3l9.4-0.6c0.2,1.5,0.6,2.7,1.2,3.5c1,1.3,2.5,1.9,4.4,1.9c1.4,0,2.5-0.3,3.2-1
		c0.7-0.5,1.1-1.4,1.1-2.3c0-0.9-0.4-1.7-1.1-2.2c-0.7-0.6-2.4-1.3-5-1.9c-4.3-1-7.4-2.3-9.2-3.9c-1.8-1.5-2.9-3.8-2.8-6.2
		c0-1.7,0.5-3.3,1.4-4.7c1.1-1.5,2.5-2.8,4.3-3.5c1.9-0.8,4.5-1.3,7.9-1.3c4.1,0,7.2,0.8,9.3,2.3c2.1,1.5,3.4,4,3.8,7.3l-9.3,0.5
		c-0.2-1.4-0.8-2.5-1.6-3.2c-0.8-0.7-1.9-1-3.3-1c-1.1,0-2,0.3-2.6,0.7c-0.5,0.4-0.9,1.1-0.9,1.8c0,0.5,0.3,1,0.7,1.4
		c0.5,0.4,1.6,0.8,3.3,1.2c4.3,0.9,7.4,1.9,9.3,2.8c1.9,1,3.2,2.2,4.1,3.6c0.9,1.4,1.3,3.1,1.2,4.8c0,2-0.6,4-1.7,5.7
		c-1.2,1.8-2.8,3.1-4.7,4c-2,0.9-4.6,1.4-7.7,1.4c-5.4,0-9.2-1-11.3-3.2C103.4,29.2,102.1,26.5,101.9,23.3z M2.2,34V1.7h16.5
		c3,0,5.4,0.3,7,0.8c1.6,0.5,3,1.5,3.9,3c1,1.5,1.5,3.4,1.5,5.2c0.1,3.2-1.5,6.2-4.2,7.8c-1.1,0.6-2.2,1-3.5,1.3
		c0.9,0.3,1.8,0.7,2.6,1.2c0.6,0.5,1.1,1.1,1.6,1.7c0.5,0.6,1,1.3,1.4,2l4.8,9.3H22.5l-5.3-9.9c-0.7-1.3-1.2-2.1-1.8-2.5
		c-0.7-0.5-1.6-0.8-2.4-0.8h-0.9v13.1L2.2,34L2.2,34z M12.1,14.8h4.2c0.9-0.1,1.7-0.2,2.6-0.4c0.6-0.1,1.2-0.5,1.6-1
		c1-1.3,0.8-3.1-0.4-4.3c-0.6-0.5-1.9-0.8-3.7-0.8h-4.4V14.8z M0,61.6L9.4,61c0.2,1.5,0.6,2.7,1.2,3.5c1,1.3,2.5,2,4.4,2
		c1.4,0,2.5-0.3,3.2-1c0.7-0.6,1.1-1.4,1.1-2.3c0-0.9-0.4-1.7-1.1-2.2c-0.7-0.6-2.4-1.3-5.1-1.9c-4.3-1-7.4-2.3-9.2-3.9
		c-1.8-1.5-2.9-3.8-2.8-6.2c0-1.7,0.5-3.3,1.4-4.7c1.1-1.6,2.5-2.8,4.3-3.5c1.9-0.8,4.5-1.3,7.9-1.3c4.1,0,7.2,0.8,9.3,2.3
		c2.1,1.5,3.4,4,3.8,7.3l-9.3,0.5c-0.2-1.4-0.7-2.5-1.6-3.2c-0.8-0.7-1.9-1-3.3-1c-1.1,0-2,0.3-2.6,0.8c-0.6,0.4-0.9,1.1-0.9,1.8
		c0,0.5,0.3,1,0.7,1.4c0.5,0.4,1.6,0.8,3.3,1.2c4.3,0.9,7.4,1.9,9.3,2.8c1.9,1,3.2,2.2,4.1,3.6c0.9,1.4,1.3,3.1,1.3,4.8
		c0,2-0.6,4-1.7,5.7c-1.2,1.8-2.8,3.1-4.7,4c-2,0.9-4.6,1.4-7.7,1.4c-5.4,0-9.2-1-11.3-3.2C1.5,67.5,0.3,64.8,0,61.6z"/>
	<path class="st2" d="M47.5,59.1l8.6,2.6c-0.5,2.2-1.4,4.3-2.7,6.1c-1.2,1.6-2.8,2.9-4.6,3.7c-1.9,0.8-4.2,1.3-7.1,1.3
		c-3.5,0-6.3-0.5-8.5-1.5c-2.2-1-4.1-2.8-5.7-5.4c-1.6-2.6-2.4-5.8-2.4-9.8c0-5.3,1.4-9.4,4.2-12.3c2.8-2.8,6.8-4.3,11.9-4.3
		c4,0,7.2,0.8,9.5,2.5c2.3,1.7,4,4.2,5.1,7.6l-8.7,1.9c-0.2-0.8-0.5-1.5-1-2.2c-0.5-0.8-1.2-1.3-2-1.8c-0.8-0.4-1.7-0.6-2.7-0.6
		c-2.2,0-4,0.9-5.1,2.7c-0.9,1.3-1.4,3.5-1.4,6.3c0,3.6,0.5,6,1.6,7.4c1.1,1.3,2.6,2,4.5,2c1.9,0,3.3-0.5,4.3-1.6
		C46.3,62.6,47,61.1,47.5,59.1z M67.6,40h9.9v11.3h10.8V40h9.9v32.2h-9.9v-13H77.5v13h-9.9V40z"/>
	<path class="st2" d="M96.8,56.1c0-5.3,1.5-9.4,4.4-12.3c2.9-2.9,7-4.4,12.1-4.4c5.3,0,9.4,1.4,12.3,4.3c2.9,2.9,4.3,6.9,4.3,12.1
		c0,3.8-0.6,6.8-1.9,9.3c-1.2,2.4-3.1,4.3-5.4,5.6c-2.4,1.3-5.4,2-8.9,2c-3.6,0-6.6-0.6-8.9-1.7c-2.4-1.2-4.4-3.1-5.7-5.5
		C97.6,63.1,96.8,59.9,96.8,56.1z M106.7,56.2c0,3.2,0.6,5.6,1.8,7c1.2,1.4,2.8,2.1,4.9,2.1c2.1,0,3.7-0.7,4.9-2.1
		c1.2-1.4,1.7-3.9,1.7-7.5c0-3-0.6-5.3-1.8-6.6c-1.2-1.4-2.9-2.1-4.9-2.1c-1.8-0.1-3.6,0.7-4.8,2.1
		C107.3,50.6,106.7,52.9,106.7,56.2z M140,56.1c0-5.3,1.5-9.4,4.4-12.3c2.9-2.9,7-4.4,12.1-4.4c5.3,0,9.4,1.4,12.3,4.3
		c2.9,2.9,4.3,6.9,4.3,12.1c0,3.8-0.6,6.8-1.9,9.3c-1.2,2.4-3.1,4.3-5.4,5.6c-2.4,1.3-5.4,2-8.9,2c-3.6,0-6.6-0.6-8.9-1.7
		c-2.4-1.2-4.4-3.1-5.7-5.5C140.8,63.1,140,59.9,140,56.1z M149.9,56.2c0,3.2,0.6,5.6,1.8,7c1.2,1.4,2.8,2.1,4.9,2.1
		c2.1,0,3.7-0.7,4.9-2.1c1.2-1.4,1.7-3.9,1.7-7.5c0-3-0.6-5.3-1.8-6.6c-1.2-1.4-2.9-2.1-4.9-2.1c-1.8-0.1-3.6,0.7-4.8,2.1
		C150.5,50.6,149.9,52.9,149.9,56.2z"/>
	<path class="st2" d="M172.1,40h9.9v24.3h15.4v7.9h-25.3L172.1,40L172.1,40z"/>
	<defs>
		<filter id="Adobe_OpacityMaskFilter_1_" filterUnits="userSpaceOnUse" x="129.5" y="1.9" width="42.3" height="40.5">
			<feColorMatrix  type="matrix" values="1 0 0 0 0  0 1 0 0 0  0 0 1 0 0  0 0 0 1 0"/>
		</filter>
	</defs>
	<mask maskUnits="userSpaceOnUse" x="129.5" y="1.9" width="42.3" height="40.5" id="mask1_1107_2059_1_">
		<path class="st3" d="M161.8,37c9.9-7.5,13-20.3,6.8-28.6c-6.1-8.2-19.2-8.8-29.1-1.2c-9.9,7.5-13,20.3-6.8,28.6
			C138.8,44,151.8,44.6,161.8,37z"/>
	</mask>
	<g class="st4">
		<path class="st2" d="M161.8,37c9.9-7.5,13-20.3,6.8-28.6c-6.1-8.2-19.2-8.8-29.1-1.2c-9.9,7.5-13,20.3-6.8,28.6
			C138.8,44,151.8,44.6,161.8,37z"/>
	</g>
	<path class="st2" d="M140.6,20.9l3.6-2.5l4.4,6.3c0.8,1,1.3,2.1,1.8,3.3c0.2,0.9,0.2,1.9-0.2,2.7c-0.5,1.1-1.2,2-2.2,2.6
		c-1.2,0.8-2.2,1.3-3,1.4c-0.8,0.1-1.7,0-2.5-0.4c-0.9-0.4-1.6-1-2.2-1.8l3.1-2.9c0.2,0.4,0.6,0.8,0.9,1c0.2,0.2,0.5,0.3,0.9,0.3
		c0.2,0,0.5-0.1,0.7-0.3c0.4-0.2,0.6-0.6,0.6-1.1c-0.1-0.6-0.4-1.2-0.8-1.7L140.6,20.9z M151.3,24.9l3.2-2.6
		c0.4,0.4,0.8,0.8,1.3,0.9c0.7,0.2,1.5,0.1,2.1-0.4c0.4-0.3,0.8-0.7,0.9-1.2c0.2-0.6-0.1-1.4-0.8-1.6c-0.1,0-0.2-0.1-0.3-0.1
		c-0.4,0-1.2,0.1-2.3,0.6c-1.8,0.8-3.2,1-4.3,0.9c-1-0.1-2-0.6-2.6-1.5c-0.4-0.6-0.6-1.3-0.7-2.1c0-0.8,0.2-1.7,0.7-2.3
		c0.7-1,1.5-1.8,2.5-2.5c1.5-1,2.8-1.5,4-1.5c1.1,0,2.2,0.5,3.2,1.7l-3.2,2.6c-0.6-0.8-1.9-1-2.7-0.4l-0.1,0.1
		c-0.4,0.2-0.6,0.5-0.8,0.9c-0.1,0.3,0,0.6,0.1,0.9c0.1,0.2,0.4,0.3,0.6,0.3c0.3,0,0.8-0.1,1.5-0.4c1.8-0.8,3.1-1.2,4.1-1.3
		c0.8-0.1,1.6-0.1,2.4,0.3c0.7,0.3,1.2,0.8,1.6,1.4c0.5,0.7,0.8,1.6,0.8,2.5c0,0.9-0.2,1.8-0.7,2.6c-0.6,1-1.5,1.8-2.4,2.5
		c-2,1.4-3.6,1.9-4.9,1.7C153.3,26.7,152.1,25.9,151.3,24.9z"/>
</g>
</svg>
