<svg width="82" height="82" viewBox="0 0 82 82" fill="none" xmlns="http://www.w3.org/2000/svg">
<path d="M41 82C63.6437 82 82 63.6437 82 41C82 18.3563 63.6437 0 41 0C18.3563 0 0 18.3563 0 41C0 63.6437 18.3563 82 41 82Z" fill="black"/>
<path fill-rule="evenodd" clip-rule="evenodd" d="M16.6562 27.5593V54.4528L24.7409 54.4015V43.4981C25.7019 43.4981 26.5988 43.5365 27.4316 44.1131C28.0594 44.6896 28.5591 45.4071 28.8922 46.2015L33.21 54.4143H42.2812C40.4875 50.8396 39.0397 46.304 35.9519 43.5878C35.2984 43.1521 34.5938 42.8318 33.8506 42.6012C34.85 42.3962 35.7981 42.0374 36.695 41.5378C38.9372 40.1668 40.2313 37.6556 40.1672 35.0418C40.2184 33.5043 39.7956 31.9796 38.9628 30.6984C37.0794 27.8028 33.2356 27.4696 30.0837 27.585H16.6562V27.5593ZM28.1747 38.45H24.7666V32.9278H28.3156C30.0838 32.7484 32.2619 33.5428 32.1337 35.6312C32.2234 37.8734 29.93 38.3218 28.1747 38.45Z" fill="#FFB749"/>
<path d="M50.5837 44.9589L42.2812 45.4458C42.4478 47.8802 43.5625 50.1736 45.4331 51.9033C47.2909 53.5946 50.6094 54.453 55.4141 54.453C59.3859 54.5683 63.9344 53.5818 66.3944 50.1736C67.3809 48.8155 67.9062 47.2139 67.9062 45.5739C67.9319 42.5246 65.8947 40.0261 63.1656 38.8474C60.5519 37.7711 57.81 36.9896 54.9912 36.5283C53.9534 36.413 52.9541 36.0927 52.07 35.5802C51.1219 34.9396 51.3525 33.6199 52.1853 33.0177C54.5812 31.4289 58.4506 32.7486 58.7581 35.7596L66.9837 35.3239C66.8428 33.0305 65.5744 30.8267 63.5884 29.4302C61.1028 28.0592 58.2328 27.4186 55.3372 27.5852C52.9669 27.4955 50.6094 27.8414 48.38 28.5974C45.6125 29.6224 43.3319 32.1208 43.3447 35.183C43.2934 37.0921 44.2159 38.9755 45.8047 40.1927C48.2263 41.8071 51.0322 42.8833 53.9791 43.3189C55.5678 43.5368 57.0925 44.0621 58.4378 44.8821C59.6806 45.8046 59.6678 47.6368 58.3994 48.5593C57.0028 49.533 54.9528 49.6483 53.3897 49.0205C51.7241 48.3286 50.7375 46.7399 50.5837 44.9589Z" fill="#FFB749"/>
</svg>
