<?xml version="1.0" ?><svg viewBox="0 0 64 64" xmlns="http://www.w3.org/2000/svg"><title/><g data-name="View" id="View-2"><path d="M61.9219,31.6118C61.8389,31.416,53.416,12,32,12S2.1611,31.416,2.0781,31.6118a1.005,1.005,0,0,0,0,.7764C2.1611,32.584,10.584,52,32,52S61.8389,32.584,61.9219,32.3882A1.005,1.005,0,0,0,61.9219,31.6118ZM32,50C13.5811,50,5.3828,34.6592,4.1016,32,5.3828,29.3408,13.5811,14,32,14S58.6172,29.3408,59.8984,32C58.6172,34.6592,50.4189,50,32,50Z"/><path d="M32,20A12,12,0,1,0,44,32,12.0137,12.0137,0,0,0,32,20Zm0,22A10,10,0,1,1,42,32,10.0111,10.0111,0,0,1,32,42Z"/></g></svg>